<svg xmlns="http://www.w3.org/2000/svg" style="display: none;">
      <symbol id="conversation" viewBox="0 0 512 512">
        <title>conversation</title>
        <g clip-rule="evenodd" fill-rule="evenodd">
          <path d="m223.685 324.372h64.658c21.091 6.321 39.375 18.68 39.375 32.91v84.444h-143.407v-84.444c0-14.23 18.255-26.589 39.374-32.91z" fill="#ebd2ff" />
          <path d="m303.453 357.282v84.444h24.265v-84.444c0-14.23-18.284-26.589-39.375-32.91h-24.264c21.09 6.321 39.374 18.68 39.374 32.91z" fill="#d7bef0" />
          <path d="m94.281 437.843h38.212l31.238-4.365 30.983 4.365h122.601l30.472-5.982 31.72 5.982h38.24v58.507h-323.466z" fill="#d09080" />
          <path d="m7.512 485.691v-124.441c0-15.307 12.529-27.836 27.837-27.836h45.979c.794 0 1.588.028 2.353.085 7.143-.68 14.457 2.239 19.105 8.362l37.419 49.55c1.87 2.494 3.911 3.798 7.653 3.798h46.856c11.764 0 21.317 9.553 21.317 21.317 0 11.792-9.554 21.316-21.317 21.316h-62.221c-6.436 0-12.813-2.948-16.98-8.476l-6.35-8.391v75.373h-91.021c-5.415-.962-9.695-5.243-10.63-10.657z" fill="#ff6978" />
          <path d="m504.517 485.691v-124.441c0-15.307-12.529-27.836-27.864-27.836h-45.951c-.794 0-1.587.028-2.381.085-7.144-.68-14.457 2.239-19.105 8.362l-37.391 49.55c-1.728 2.268-3.741 3.798-7.653 3.798h-46.856c-11.792 0-21.345 9.553-21.345 21.317 0 11.792 9.553 21.316 21.345 21.316h62.192c6.463 0 12.814-2.948 17.009-8.476l6.321-8.391v75.373h91.021c5.413-.962 9.694-5.243 10.658-10.657z" fill="#ccf49f" />
          <path d="m228.815 204.494h122.118l30.897 30.898c2.467 2.438 5.273 1.021 5.273-2.211v-28.688c15.732 0 28.602-12.897 28.602-28.63v-72.227c0-15.732-12.869-28.602-28.602-28.602h-158.288c-15.732 0-28.631 12.869-28.631 28.602v72.227c.001 15.734 12.899 28.631 28.631 28.631z" fill="#ecf4ff" />
          <path d="m85.777 175.638h128.469c20.891 0 37.983-17.093 37.983-37.984v-84.019c0-20.863-17.093-37.956-37.983-37.956h-164.639c-20.893 0-37.985 17.093-37.985 37.956v84.019c0 20.892 17.093 37.984 37.985 37.984v28.715c0 3.062 3.005 4.45 5.273 2.183z" fill="#ecf4ff" />
          <path d="m296.479 302.772c0 22.252-18.227 40.478-40.479 40.478s-40.479-18.227-40.479-40.478c0-14.456 0-28.913 0-43.37 0-12.472 10.204-22.648 22.677-22.648h52.242c4.168 0 6.039 2.381 6.039 6.01z" fill="#ffcbbe" />
          <path d="m215.521 259.401v13.068h80.958v-29.707c0-3.629-1.871-6.01-6.039-6.01h-52.242c-12.472.001-22.677 10.178-22.677 22.649z" fill="#ffe5a0" />
          <path d="m17.858 302.772c0 22.252 18.227 40.478 40.479 40.478s40.479-18.227 40.479-40.478v-43.37c0-12.472-10.205-22.648-22.678-22.648h-35.63c-12.444 0-22.649 10.177-22.649 22.648v43.37z" fill="#ffcbbe" />
          <path d="m494.142 302.772c0 22.252-18.198 40.478-40.451 40.478-22.28 0-40.478-18.227-40.478-40.478v-43.37c0-12.472 10.176-22.648 22.648-22.648h35.632c12.473 0 22.649 10.177 22.649 22.648z" fill="#c68b87" />
          <path d="m494.142 302.772c0 22.252-18.198 40.478-40.451 40.478-4.224 0-8.306-.68-12.161-1.87 15.194-4.819 26.561-18.369 28.149-34.668 6.35 1.077 14.343.51 24.435-2.522l.028-44.788z" fill="#bd7d79" />
          <path d="m98.817 259.401v15.761c-11.424 4.224-20.778.766-26.249-2.353-4.252-2.409-4.989-2.438-5.499 1.474-1.475 11.367-6.605 42.747-49.154 29.906l-.057-44.788c0-12.472 10.205-22.648 22.649-22.648h35.633c12.472 0 22.677 10.177 22.677 22.648z" fill="#c68b87" />
          <path d="m413.212 259.401v15.761c11.395 4.224 20.749.766 26.22-2.353 4.28-2.409 4.989-2.438 5.499 1.474 1.475 11.367 6.605 42.747 49.183 29.906l.028-44.788c.028-12.472-10.177-22.648-22.649-22.648h-35.633c-12.472 0-22.648 10.177-22.648 22.648z" fill="#477b9e" />
          <path d="m469.876 259.401v43.37c0 1.332-.057 2.637-.197 3.94 6.35 1.077 14.343.51 24.435-2.522l.028-44.788c0-11.934-9.326-21.77-21.061-22.592-.539-.057-1.049-.057-1.588-.057h-24.265c12.471.001 22.648 10.178 22.648 22.649z" fill="#365e7d" />
          <path d="m74.553 302.772c0 18.028-11.963 33.421-28.347 38.608 3.826 1.19 7.908 1.87 12.132 1.87 22.252 0 40.479-18.227 40.479-40.478v-27.609c-10.148 3.77-18.652 1.445-24.265-1.304v28.913z" fill="#f7beaf" />
          <path d="m51.875 236.753c12.473 0 22.678 10.177 22.678 22.648v14.457c5.612 2.749 14.116 5.074 24.265 1.304v-15.761c0-12.472-10.205-22.648-22.678-22.648z" fill="#bd7d79" />
          <path d="m272.214 302.772c0 18.028-11.962 33.421-28.346 38.608 3.826 1.19 7.908 1.87 12.132 1.87 22.252 0 40.479-18.227 40.479-40.478v-30.302h-24.266v30.302z" fill="#f7beaf" />
          <path d="m272.214 242.763v29.707h24.266v-29.707c0-3.629-1.871-6.01-6.039-6.01h-24.264c4.166 0 6.037 2.381 6.037 6.01z" fill="#f2ce7e" />
          <path d="m87.847 392.743c-.964-1.304-2.947-.651-2.947.992v102.615h9.382 14.882v-29.254-29.253-16.866z" fill="#cf4351" />
          <path d="m480.252 361.25v124.441c-.964 5.414-5.244 9.694-10.659 10.658h24.266c5.414-.964 9.694-5.244 10.658-10.658v-124.441c0-14.229-10.856-26.078-24.69-27.666-2.92 2.495-6.207 4.593-9.78 6.18 6.208 5.102 10.205 12.869 10.205 21.486z" fill="#b3e59f" />
          <path d="m200.497 179.918c1.983 13.833 13.947 24.576 28.318 24.576h122.118l30.897 30.898c2.467 2.438 5.273 1.021 5.273-2.211v-28.688c15.732 0 28.602-12.897 28.602-28.63v-72.227c0-14.371-10.715-26.334-24.548-28.318.198 1.333.283 2.665.283 4.054v72.228c0 15.732-12.87 28.602-28.603 28.602h-158.286c-1.39-.001-2.75-.086-4.054-.284z" fill="#ddeafb" />
          <path d="m227.966 113.389c0 17.349-11.793 32.089-27.781 36.567-3.232.907-6.661 1.417-10.204 1.417h-164.639c-4.139 0-8.107-.68-11.82-1.899 4.989 15.138 19.304 26.164 36.086 26.164v28.715c0 3.062 3.005 4.45 5.273 2.183l30.897-30.898h114.407 14.061c20.891 0 37.983-17.093 37.983-37.984v-62.618-21.401c0-16.753-11.026-31.067-26.163-36.085 1.219 3.741 1.899 7.71 1.899 11.82v45.666 38.353z" fill="#ddeafb" />
          <path d="m378.571 437.843h24.266v58.507h-24.266z" fill="#be694f" />
        </g>
        <path d="m27.383 314.082c1.673 4.535 4.309 8.617 7.682 11.962 5.981 5.981 14.203 9.694 23.273 9.694 9.043 0 17.292-3.713 23.272-9.694 5.981-5.98 9.695-14.229 9.695-23.272v-18.34c-6.945.596-13.04-.907-17.802-2.892-.426 2.069-.907 4.082-1.531 6.066-2.353 7.653-6.293 14.627-12.529 19.644-6.321 5.103-14.712 8.051-25.824 7.484-1.984-.086-4.054-.312-6.236-.652zm194.29-49.125h65.934v-20.721h-50.769c-4.167 0-7.966 1.73-10.715 4.479-2.75 2.75-4.45 6.52-4.45 10.687zm65.933 14.996h-65.934v22.818c0 9.043 3.713 17.292 9.694 23.272 5.98 5.981 14.229 9.694 23.272 9.694 9.07 0 17.319-3.713 23.273-9.694 5.98-5.98 9.694-14.229 9.694-23.272v-22.818zm205.515 50.06c4.025 2.126 7.568 5.018 10.488 8.447 5.244 6.18 8.391 14.145 8.391 22.79v50.57c0 4.139-3.346 7.483-7.483 7.483-4.139 0-7.513-3.345-7.513-7.483v-50.57c0-4.988-1.814-9.581-4.818-13.124-2.664-3.147-6.265-5.471-10.375-6.576-7.908 5.782-17.632 9.185-28.12 9.185-10.857 0-20.892-3.629-28.971-9.78-1.53.17-3.004.596-4.422 1.247-1.928.907-3.685 2.297-5.103 4.167l-40.281 53.349c-1.417 1.871-3.628 3.005-5.98 3.005h-51.619c-3.827 0-7.285 1.53-9.779 4.024-2.495 2.523-4.054 5.981-4.054 9.78 0 3.826 1.559 7.284 4.054 9.779 2.494 2.494 5.952 4.054 9.779 4.054h61.653c2.467 0 4.365-.256 6.719-1.446 4.366-2.183 8.447-8.815 11.424-12.784l26.674-35.291c2.495-3.316 7.172-3.969 10.488-1.474 3.289 2.494 3.94 7.199 1.446 10.487l-25.37 33.619v65.367h86.655v-43.059c0-4.139 3.374-7.483 7.513-7.483 4.138 0 7.483 3.345 7.483 7.483v50.57c0 4.139-3.346 7.483-7.483 7.483-165.688 0-331.346 0-497.005 0-4.139 0-7.512-3.345-7.512-7.483v-50.57c0-4.139 3.373-7.483 7.512-7.483s7.483 3.345 7.483 7.483v43.059h86.685v-65.367l-25.398-33.619c-2.494-3.288-1.843-7.993 1.475-10.487 3.288-2.495 7.993-1.843 10.488 1.474l26.078 34.526c2.382 3.146 4.763 6.321 7.143 9.495 1.36 1.786 3.033 3.146 4.876 4.054 2.07 1.049 3.997 1.446 6.266 1.446h62.106c3.799 0 7.257-1.56 9.779-4.054 2.495-2.495 4.025-5.953 4.025-9.779 0-3.799-1.53-7.257-4.025-9.78-2.522-2.494-5.98-4.024-9.779-4.024h-51.647c-2.268 0-4.507-1.049-5.98-3.005l-40.281-53.349c-2.296-3.032-5.727-4.988-9.524-5.414-8.051 6.123-18.085 9.78-28.942 9.78-10.487 0-20.24-3.402-28.148-9.156-4.025 1.049-7.597 3.345-10.262 6.406-3.062 3.571-4.933 8.192-4.933 13.266v50.57c0 4.139-3.345 7.483-7.483 7.483s-7.514-3.345-7.514-7.484v-50.57c0-8.759 3.26-16.837 8.617-23.045 2.892-3.316 6.378-6.123 10.29-8.192-5.584-8.022-8.532-17.49-8.532-27.241v-43.37c0-8.306 3.373-15.846 8.844-21.316 5.472-5.442 12.983-8.844 21.289-8.844h35.632c8.306 0 15.846 3.401 21.316 8.844 5.471 5.471 8.845 13.011 8.845 21.316v43.37c0 9.609-2.863 18.596-7.768 26.107 4.054 2.041 7.483 4.848 10.233 8.476l38.014 50.343h30.018v-30.415c0-8.617 4.564-16.413 11.963-23.018 5.726-5.102 13.266-9.553 21.6-13.067-2.381-5.698-3.686-11.906-3.686-18.426v-30.302-13.068c0-8.306 3.402-15.846 8.846-21.316 5.471-5.442 13.011-8.844 21.316-8.844h58.28c4.139 0 7.513 3.373 7.513 7.512v35.717 30.302c0 6.151-1.19 12.048-3.317 17.49 8.958 3.515 17.065 8.05 23.189 13.322 7.851 6.747 12.699 14.797 12.699 23.698v30.415h30.018l38.014-50.343c2.807-3.686 6.321-6.52 10.262-8.447-4.933-7.54-7.796-16.526-7.796-26.136v-43.37c0-8.306 3.402-15.846 8.845-21.316 5.471-5.442 13.011-8.844 21.316-8.844h35.632c8.307 0 15.846 3.401 21.317 8.844 5.442 5.471 8.844 13.011 8.844 21.316v43.37c0 9.75-2.976 19.218-8.532 27.241zm-8.504-15.931c-2.154.34-4.252.566-6.236.652-11.085.566-19.475-2.382-25.796-7.484-6.265-5.017-10.205-11.99-12.558-19.644-.596-1.984-1.105-3.997-1.503-6.066-4.79 1.984-10.856 3.487-17.83 2.892v18.34c0 9.043 3.714 17.292 9.695 23.272 5.98 5.981 14.23 9.694 23.301 9.694 9.042 0 17.291-3.713 23.273-9.694 3.346-3.345 5.981-7.427 7.654-11.962zm-63.923-44.674c10.007 1.417 17.32-4.394 18.624-5.527 1.474-1.248 2.863-2.013 4.876-2.098 4.139-.199 7.625 2.976 7.823 7.114.255 4.876.935 9.808 2.324 14.315 1.531 5.018 3.94 9.439 7.597 12.387 3.601 2.892 8.676 4.536 15.733 4.195 2.722-.142 5.698-.566 8.986-1.304v-39.09c0-4.167-1.729-7.937-4.479-10.687-2.75-2.749-6.52-4.479-10.688-4.479h-35.63c-4.167 0-7.938 1.73-10.687 4.479-2.75 2.75-4.479 6.52-4.479 10.687zm-329.388 0v-10.007c0-4.167-1.701-7.937-4.451-10.687-2.749-2.749-6.548-4.479-10.715-4.479h-35.632c-4.139 0-7.938 1.73-10.688 4.479-2.749 2.75-4.45 6.52-4.45 10.687v39.09c3.26.737 6.236 1.162 8.958 1.304 7.058.341 12.133-1.304 15.733-4.195 3.656-2.947 6.065-7.369 7.625-12.387 1.389-4.508 2.069-9.439 2.296-14.315.198-4.139 3.713-7.313 7.823-7.114 1.928.085 3.402.793 4.819 2.04 1.05.935 8.477 7.029 18.682 5.584zm127.078 64.687c-7.824 3.033-14.74 6.888-19.673 11.31-4.28 3.799-6.917 7.881-6.917 11.878v30.415h2.92c7.938 0 15.165 3.232 20.382 8.447 5.216 5.216 8.447 12.416 8.447 20.382 0 5.017-1.304 9.723-3.543 13.833h72c-2.239-4.11-3.515-8.816-3.515-13.833 0-7.966 3.231-15.166 8.447-20.382 5.217-5.215 12.416-8.447 20.382-8.447h2.892v-30.415c0-4.139-2.835-8.391-7.427-12.331-5.387-4.62-12.87-8.617-21.204-11.65-.964 1.162-1.984 2.296-3.033 3.345-8.703 8.702-20.693 14.089-33.902 14.089-13.182 0-25.2-5.387-33.874-14.089-.823-.824-1.617-1.673-2.382-2.552zm-155.879-270.398c-4.139 0-7.483-3.373-7.483-7.512s3.345-7.483 7.483-7.483h138.842c4.139 0 7.483 3.345 7.483 7.483 0 4.139-3.345 7.512-7.483 7.512zm0 78.917c-4.139 0-7.483-3.373-7.483-7.512s3.345-7.512 7.483-7.512h69.422c4.139 0 7.512 3.373 7.512 7.512s-3.373 7.512-7.512 7.512zm0-39.458c-4.139 0-7.483-3.373-7.483-7.512s3.345-7.484 7.483-7.484h138.842c4.139 0 7.483 3.346 7.483 7.484 0 4.139-3.345 7.512-7.483 7.512zm146.524 79.965c1.049 2.92 2.721 5.527 4.848 7.653 3.799 3.827 9.071 6.208 14.938 6.208h44.079c4.139 0 7.483 3.346 7.483 7.512 0 4.139-3.345 7.484-7.483 7.484h-44.079c-10.006 0-19.021-4.082-25.541-10.659-4.875-4.903-8.334-11.196-9.808-18.198h-104.57l-33.959 33.959c-1.36 1.361-3.231 2.211-5.329 2.211-4.139 0-7.513-3.345-7.513-7.483v-29.31c-9.524-1.588-18.057-6.151-24.604-12.728-8.249-8.221-13.351-19.588-13.351-32.117v-84.018c0-12.501 5.103-23.868 13.351-32.116 8.221-8.221 19.587-13.352 32.117-13.352h164.639c12.528 0 23.896 5.131 32.116 13.352 8.249 8.248 13.352 19.615 13.352 32.116v13.89h127.391c9.949 0 18.964 4.054 25.512 10.602s10.602 15.562 10.602 25.512v72.227c0 9.95-4.054 18.964-10.602 25.512-4.848 4.848-11.084 8.334-18.028 9.809v29.48c0 1.899-.709 3.826-2.183 5.301-2.92 2.919-7.682 2.919-10.602 0l-33.988-33.987h-40.961c-4.139 0-7.512-3.346-7.512-7.484 0-4.166 3.373-7.512 7.512-7.512h44.079c2.098 0 3.969.851 5.329 2.239l23.329 23.329v-18.057c0-4.166 3.374-7.512 7.513-7.512 5.782 0 11.083-2.381 14.91-6.208 3.826-3.826 6.208-9.099 6.208-14.91v-72.227c0-5.811-2.382-11.083-6.208-14.91-3.827-3.827-9.128-6.208-14.91-6.208h-127.392v55.134c0 12.529-5.103 23.896-13.352 32.117-8.221 8.248-19.588 13.351-32.116 13.351h-5.217zm-123.252-14.995h128.469c8.39 0 15.987-3.43 21.515-8.957 5.527-5.528 8.957-13.153 8.957-21.516v-84.018c0-8.362-3.43-15.987-8.957-21.515s-13.125-8.958-21.515-8.958h-164.639c-8.392 0-15.988 3.43-21.516 8.958-5.527 5.527-8.958 13.152-8.958 21.515v84.019c0 8.362 3.431 15.987 8.958 21.516 5.527 5.527 13.124 8.957 21.516 8.957 4.139 0 7.483 3.373 7.483 7.512v18.057l23.386-23.357c1.475-1.476 3.375-2.213 5.301-2.213zm309.576 277.228h-278.678v43.483h278.679v-43.483z" />
      </symbol>
      <symbol id="interactive-display" viewBox="0 0 256 256">
        <title>interactive-display</title>
        <g>
          <path d="m119.492 54.077c-26.68 0-48.31 21.63-48.31 48.31 0 23.2 16.36 42.58 38.18 47.23v-43.9c0-5.67 4.61-10.13 10.13-10.13 5.6 0 10.12 4.55 10.12 10.13v14.43c0 2.97 2.4 5.37 5.37 5.37 27.396 0 25.682-.061 26.84.15 3.8-6.91 5.97-14.84 5.97-23.28 0-26.68-21.63-48.31-48.3-48.31z" fill="#f0c020" />
        </g>
        <g>
          <path d="m100.232 140.609c-14.307-7.247-23.551-22.25-23.551-38.222 0-23.605 19.205-42.81 42.811-42.81 17.679 0 33.309 10.643 39.82 27.113.508 1.284-.122 2.736-1.406 3.244-1.286.509-2.736-.122-3.244-1.406-5.752-14.549-19.557-23.951-35.17-23.951-20.849 0-37.811 16.961-37.811 37.81 0 14.105 8.169 27.357 20.811 33.762 1.231.624 1.725 2.128 1.101 3.36-.623 1.231-2.128 1.725-3.361 1.1zm59.56-35.721c-1.381 0-2.5-1.119-2.5-2.5 0-1.605-.103-3.222-.304-4.805-.175-1.37.794-2.622 2.163-2.796 1.368-.173 2.622.794 2.796 2.164.229 1.792.345 3.621.345 5.438 0 1.38-1.119 2.499-2.5 2.499z" fill="#f9e5af" />
        </g>
        <g>
          <path d="m149.812 102.387c0 9.27-4.16 17.57-10.72 23.13h-4.11c-2.97 0-5.37-2.4-5.37-5.37v-14.43c0-5.58-4.52-10.13-10.12-10.13-5.52 0-10.13 4.46-10.13 10.13v25.25c-11.77-4.16-20.2-15.39-20.2-28.58 0-16.75 13.58-30.33 30.33-30.33 16.74 0 30.32 13.58 30.32 30.33z" fill="#fc5d3d" />
        </g>
        <g>
          <path d="m137.505 114.065c-1.237-.612-1.745-2.111-1.134-3.349 1.27-2.571 1.94-5.451 1.94-8.329 0-10.383-8.442-18.83-18.819-18.83-8.653 0-16.166 5.862-18.269 14.253-.335 1.339-1.691 2.153-3.032 1.817-1.34-.335-2.153-1.693-1.817-3.032 2.661-10.621 12.167-18.038 23.118-18.039 13.134 0 23.819 10.69 23.819 23.83 0 3.642-.85 7.288-2.458 10.543-.611 1.241-2.11 1.747-3.348 1.136zm-39.385-1.148c-.824-1.671-1.452-3.438-1.865-5.251-.307-1.346.536-2.686 1.882-2.993 1.355-.304 2.688.537 2.993 1.882.326 1.432.822 2.828 1.475 4.149.61 1.238.103 2.737-1.136 3.348-1.233.609-2.736.107-3.349-1.135z" fill="#ffcbc2" />
        </g>
        <g>
          <g>
            <path d="m171.514 161.119h-63.437c-3.2 0-5.791 2.592-5.791 5.791v18.286h75.038v-18.286c0-3.199-2.61-5.791-5.81-5.791z" fill="#fff" />
          </g>
          <g>
            <path d="m180.58 185.194h-81.551c-1.975 0-3.576 1.601-3.576 3.576v60.687h88.703c0-22.698 0-39.394 0-60.687 0-1.975-1.6-3.576-3.576-3.576z" fill="#72c1e8" />
          </g>
          <g>
            <path d="m160.132 125.517h-21.04-4.11c-2.97 0-5.37-2.4-5.37-5.37v-14.43c0-5.58-4.52-10.13-10.12-10.13-5.52 0-10.13 4.46-10.13 10.13v55.4h60.89v-25.48c0-5.672-4.612-10.12-10.12-10.12z" fill="#ffb69f" />
          </g>
          <g>
            <path d="m171.504 231.026c-1.381 0-2.5-1.119-2.5-2.5v-3c0-1.381 1.119-2.5 2.5-2.5s2.5 1.119 2.5 2.5v3c0 1.381-1.119 2.5-2.5 2.5zm0-13c-1.381 0-2.5-1.119-2.5-2.5v-14.881h-60.119c-1.381 0-2.5-1.119-2.5-2.5s1.119-2.5 2.5-2.5h62.619c1.381 0 2.5 1.119 2.5 2.5v17.381c0 1.381-1.119 2.5-2.5 2.5z" fill="#c5e5ff" />
          </g>
        </g>
        <g>
          <circle cx="213.792" cy="29.791" fill="#f0c020" r="14.833" />
        </g>
        <g>
          <circle cx="213.792" cy="123.874" fill="#fc5d3d" r="14.833" />
        </g>
        <g>
          <circle cx="42.208" cy="42.353" fill="#f0c020" r="14.833" />
        </g>
        <g>
          <circle cx="53.792" cy="135.853" fill="#fc5d3d" r="10.489" />
        </g>
        <g>
          <circle cx="110.27" cy="17.031" fill="#fc5d3d" r="10.489" />
        </g>
        <g>
          <path d="m186.649 229.46c0-1.38-1.119-2.5-2.5-2.5-1.369 0-2.489 1.12-2.489 2.5v20c0 1.38 1.12 2.5 2.489 2.5 1.381 0 2.511-1.12 2.511-2.5 0-.01 0-.01-.011-.02z" />
          <path d="m184.149 221.96c1.381 0 2.5-1.12 2.5-2.5s-1.119-2.5-2.5-2.5c-1.369 0-2.489 1.12-2.489 2.5s1.12 2.5 2.489 2.5z" />
          <path d="m213.792 106.541c-7.355 0-13.639 4.612-16.152 11.09l-28.142-6.412c.514-2.91.792-5.864.792-8.829 0-10.245-3.012-20.245-9.076-28.966l40.53-31.201c3.122 3.026 7.368 4.898 12.045 4.898 9.56 0 17.33-7.77 17.33-17.33 0-1.26-.13-2.52-.4-3.75-.29-1.31-1.66-2.19-2.979-1.9-1.348.291-2.203 1.629-1.91 2.96 0 0 .3 1.202.3 2.69-.021 6.79-5.55 12.32-12.34 12.33-6.79-.01-12.32-5.54-12.33-12.33.01-6.717 5.451-12.33 12.399-12.33 1.37 0 2.49-1.12 2.5-2.49.01-1.303-1.004-2.51-2.569-2.51-13.193 0-21.596 14.28-15.101 25.804l-40.523 31.195c-9.6-11.281-23.673-17.88-38.676-17.88-.995 0-1.982.039-2.965.096l-2.397-22.24c5.284-1.647 9.131-6.585 9.131-12.404 0-7.162-5.826-12.989-12.988-12.989s-12.99 5.826-12.99 12.988c0 6.786 5.233 12.364 11.875 12.932l2.397 22.239c-12.017 1.894-22.838 8.03-30.616 17.077l-23.666-18.382c1.438-2.525 2.271-5.437 2.271-8.544 0-9.558-7.776-17.333-17.334-17.333s-17.333 7.776-17.333 17.333 7.775 17.333 17.333 17.333c4.652 0 8.873-1.852 11.99-4.845l23.669 18.385c-2.699 3.85-4.895 8.116-6.468 12.724-.449 1.3.25 2.73 1.561 3.17 1.28.44 2.729-.28 3.17-1.55 6.34-18.54 23.76-30.99 43.36-30.99 25.298 0 45.8 20.507 45.8 45.81 0 7.25-1.65 14.19-4.9 20.63 0 0-.47-.002-15.387-.002 4.691-5.793 7.309-13.043 7.309-20.63 0-18.103-14.723-32.83-32.82-32.83-18.102 0-32.829 14.727-32.829 32.83 0 13.279 8.051 25.213 20.197 30.272v13.761c-18.18-5.2-31.449-21.33-33.02-40.17-.11-1.35-1.36-2.39-2.7-2.28-1.407.128-2.401 1.361-2.28 2.7.476 5.707 1.905 11.277 4.275 16.529l-9.131 4.655c-2.38-3.031-6.067-4.989-10.211-4.989-7.162 0-12.989 5.827-12.989 12.989s5.827 12.989 12.989 12.989 12.988-5.827 12.988-12.989c0-1.23-.183-2.417-.504-3.546l9.133-4.656c6.77 11.78 18.059 20.529 31.453 23.945v7.121c-3.996.591-7.075 4.034-7.075 8.192v15.78h-.758c-3.351.01-6.08 2.73-6.08 6.08v60.69c0 1.38 1.119 2.5 2.5 2.5 1.38 0 2.5-1.12 2.5-2.5v-60.69c0-.59.489-1.07 1.08-1.08h81.55c.59.01 1.08.49 1.08 1.08v20.69c0 1.38 1.12 2.5 2.489 2.5 1.381 0 2.511-1.12 2.511-2.5 0-.01 0-.01-.011-.02v-20.67c0-3.35-2.72-6.07-6.069-6.08h-.757v-15.78c0-4.151-3.076-7.589-7.071-8.189v-23.084c0-5.062-2.956-9.476-7.363-11.474 1.231-2.599 2.221-5.304 2.994-8.07l28.144 6.413c-.806 10.243 7.315 18.702 17.265 18.702 9.558 0 17.333-7.776 17.333-17.333s-7.775-17.335-17.333-17.335zm-111.511-89.51c0-4.405 3.584-7.989 7.989-7.989 4.404 0 7.988 3.584 7.988 7.989s-3.584 7.989-7.988 7.989c-4.405 0-7.989-3.584-7.989-7.989zm-60.073 37.656c-6.801 0-12.333-5.533-12.333-12.333 0-6.801 5.532-12.333 12.333-12.333s12.334 5.533 12.334 12.333-5.533 12.333-12.334 12.333zm11.584 89.155c-4.405 0-7.989-3.584-7.989-7.989s3.584-7.989 7.989-7.989c4.404 0 7.988 3.584 7.988 7.989s-3.584 7.989-7.988 7.989zm37.87-41.455c0-15.345 12.484-27.83 27.829-27.83 15.34 0 27.82 12.484 27.82 27.83 0 7.889-3.327 15.356-9.159 20.63h-3.171c-1.583 0-2.87-1.288-2.87-2.87v-14.43c0-6.964-5.661-12.63-12.62-12.63-6.962 0-12.621 5.663-12.632 12.632v21.46c-9.217-4.691-15.197-14.248-15.197-24.792zm83.161 64.523v15.78h-70.037v-15.78c0-1.814 1.477-3.291 3.291-3.291h63.438c1.824 0 3.308 1.477 3.308 3.291zm-7.071-31.273v22.98h-55.891c0-10.739 0-42.149 0-52.9 0-4.162 3.393-7.627 7.629-7.627 4.199 0 7.609 3.43 7.619 7.63v14.43c.011 4.406 3.615 7.86 7.87 7.87h25.15c4.158 0 7.623 3.32 7.623 7.617zm46.04.571c-6.801 0-12.334-5.533-12.334-12.333s5.533-12.333 12.334-12.333 12.333 5.533 12.333 12.333-5.532 12.333-12.333 12.333z" />
          <path d="m221.53 20.19c1.062.851 2.634.707 3.52-.38.86-1.07.7-2.65-.38-3.51-1.03-.84-2.68-.66-3.51.37-.868 1.075-.698 2.658.37 3.52z" />
          <path d="m71.54 98.98c1.26 0 2.33-.94 2.479-2.19.169-1.412-.833-2.627-2.18-2.79-1.36-.16-2.62.83-2.78 2.18-.177 1.465.945 2.8 2.481 2.8z" />
        </g>
      </symbol>
      <symbol id="idea" viewBox="0 0 512 512">
        <title>idea</title>
        <g clip-rule="evenodd" fill-rule="evenodd">
          <path d="m52.331 378.004h67.748c19.956 0 36.311 16.328 36.311 36.312v79.995c-.907 5.188-5.018 9.27-10.177 10.205h-120.018c-5.188-.935-9.269-5.017-10.177-10.205v-79.995c.001-19.984 16.329-36.312 36.313-36.312z" fill="#a5cdff" />
          <path d="m95.814 378.004h24.265c19.956 0 36.311 16.328 36.311 36.312v79.995c-.907 5.188-5.018 9.27-10.177 10.205h-24.265c5.159-.935 9.241-5.017 10.177-10.205v-79.995c.001-19.984-16.355-36.312-36.311-36.312z" fill="#8abfff" />
          <path d="m222.126 378.004h67.776c19.956 0 36.283 16.328 36.283 36.312v79.995c-.906 5.188-4.988 9.27-10.176 10.205h-120.019c-5.158-.935-9.24-5.017-10.176-10.205v-79.995c0-19.984 16.356-36.312 36.312-36.312z" fill="#ebd2ff" />
          <path d="m265.609 378.004h24.265c19.984 0 36.311 16.328 36.311 36.312v79.995c-.906 5.188-4.988 9.27-10.176 10.205h-24.265c5.188-.935 9.269-5.017 10.177-10.205v-79.995c.001-19.984-16.327-36.312-36.312-36.312z" fill="#d7bef0" />
          <path d="m391.949 378.004h67.748c19.956 0 36.312 16.328 36.312 36.312v79.995c-.907 5.188-5.018 9.27-10.177 10.205h-120.017c-5.188-.935-9.27-5.017-10.177-10.176v-80.023c0-19.985 16.327-36.313 36.311-36.313z" fill="#ccf49f" />
          <path d="m435.434 378.004h24.264c19.956 0 36.312 16.328 36.312 36.312v79.995c-.907 5.188-5.018 9.27-10.177 10.205h-24.293c5.188-.935 9.27-5.017 10.205-10.205v-79.995c0-19.984-16.356-36.312-36.311-36.312z" fill="#b3e59f" />
          <path d="m140.46 205.94h88.725l21.061 36.482c2.806 4.848 8.617 5.018 11.537 0l21.032-36.482h88.753l39.912 38.467c4.393 4.224 9.07 1.559 9.638-3.458l4.592-39.317c40.563-12.473 70.3-50.372 70.3-94.905 0-54.567-44.646-99.213-99.241-99.213h-281.538c-54.567 0-99.213 44.646-99.213 99.213 0 44.533 29.708 82.433 70.3 94.905l4.563 39.317c.652 5.584 5.839 7.115 9.638 3.458z" fill="#ecf4ff" />
          <path d="m256 145.022h-21.543c.028-23.102-22.564-32.145-22.564-59.754 0-24.35 19.758-44.108 44.107-44.108 24.378 0 44.107 19.758 44.107 44.108 0 27.61-22.564 36.652-22.564 59.754z" fill="#ffe5a0" />
          <path d="m277.543 145.022v15.563c0 7.2-5.896 13.096-13.096 13.096h-16.866c-7.229 0-13.124-5.896-13.124-13.096v-15.563z" fill="#477b9e" />
          <path d="m464.176 345.207c0 21.09-17.263 38.354-38.352 38.354-21.119 0-38.382-17.263-38.382-38.354v-41.131c0-11.792 9.666-21.458 21.487-21.458h33.788c11.792 0 21.458 9.667 21.458 21.458v41.131z" fill="#ffcbbe" />
          <path d="m124.699 345.065c0 21.175-17.319 38.495-38.494 38.495s-38.495-17.32-38.495-38.495c0-13.748 0-27.497 0-41.245 0-11.849 9.694-21.571 21.544-21.571h49.719c3.94 0 5.727 2.296 5.727 5.754-.001 19.021-.001 38.042-.001 57.062z" fill="#c68b87" />
          <path d="m387.442 304.076v25.229l26.249-12.841c3.543-1.729 6.973-1.899 10.545-.68l39.94 13.522v-25.229c0-11.792-9.666-21.458-21.458-21.458h-33.788c-11.822-.001-21.488 9.665-21.488 21.457z" fill="#ffe5a0" />
          <path d="m47.71 303.821v12.416h76.989v-28.233c0-3.458-1.786-5.754-5.727-5.754h-49.718c-11.85 0-21.544 9.722-21.544 21.571z" fill="#477b9e" />
          <path d="m294.494 345.065c0 21.175-17.319 38.495-38.494 38.495s-38.494-17.32-38.494-38.495v-41.245c0-11.849 9.694-21.571 21.543-21.571h33.902c11.849 0 21.543 9.723 21.543 21.571z" fill="#ffcbbe" />
          <path d="m217.506 303.821v14.967c10.856 4.054 19.928.652 25.143-2.325 4.054-2.296 4.706-2.75 8.73.766 18.482 16.186 43.115 7.2 43.115 7.2v-20.608c0-11.849-9.694-21.571-21.543-21.571h-33.902c-11.849 0-21.543 9.722-21.543 21.571z" fill="#c68b87" />
          <path d="m100.435 316.237v28.829c0 16.923-11.083 31.409-26.362 36.511 3.799 1.276 7.881 1.984 12.133 1.984 21.175 0 38.494-17.32 38.494-38.495v-28.829z" fill="#bd7d79" />
          <path d="m118.973 282.25h-24.292c3.968 0 5.754 2.296 5.754 5.754v28.233h24.265v-28.233c-.001-3.459-1.787-5.754-5.727-5.754z" fill="#365e7d" />
          <path d="m270.23 345.065c0 13.919-7.484 26.193-18.652 32.939-2.41 1.474-4.989 2.665-7.711 3.572 3.827 1.276 7.909 1.984 12.133 1.984 7.257 0 14.06-2.041 19.871-5.556 11.14-6.746 18.623-19.02 18.623-32.939v-20.636s-11.253 4.11-24.264 1.786z" fill="#f7beaf" />
          <path d="m248.686 282.25c11.849 0 21.544 9.723 21.544 21.571v22.395c13.011 2.324 24.264-1.786 24.264-1.786v-20.608c0-11.849-9.694-21.571-21.543-21.571h-24.265z" fill="#bd7d79" />
          <path d="m439.912 345.207c0 13.862-7.455 26.051-18.539 32.797-2.409 1.474-4.988 2.665-7.682 3.572 3.799 1.276 7.88 1.984 12.133 1.984 7.228 0 14.002-2.041 19.814-5.556 11.083-6.746 18.538-18.936 18.538-32.797v-15.902l-24.264-8.221z" fill="#f7beaf" />
          <path d="m442.718 282.618h-24.265c11.793 0 21.459 9.667 21.459 21.458v17.008l24.264 8.221v-25.229c0-11.792-9.666-21.458-21.458-21.458z" fill="#f2ce7e" />
          <path d="m372.504 181.675h-281.537c-21.118 0-40.762-6.69-56.891-18.057 12.585 17.886 30.926 31.465 52.242 38.013l4.563 39.317c.652 5.584 5.839 7.115 9.638 3.458l39.941-38.467h88.725l21.061 36.482c2.806 4.848 8.617 5.018 11.537 0l21.032-36.482h88.753l39.912 38.467c4.393 4.224 9.07 1.559 9.638-3.458l4.592-39.317c40.563-12.473 70.3-50.372 70.3-94.905 0-33.449-16.781-63.185-42.321-81.156 11.366 16.129 18.057 35.773 18.057 56.892-.001 54.566-44.646 99.213-99.242 99.213z" fill="#ddeafb" />
          <path d="m275.843 85.268c0 27.61-22.593 36.652-22.564 59.754h24.264c0-23.102 22.564-32.145 22.564-59.754 0-24.35-19.729-44.108-44.107-44.108-4.195 0-8.277.595-12.133 1.672 18.483 5.273 31.976 22.281 31.976 42.436z" fill="#f2ce7e" />
        </g>
        <path d="m256 152.535h-14.031v8.05c0 1.531.623 2.919 1.644 3.94 1.02 1.021 2.438 1.672 3.969 1.672h16.866c1.531 0 2.92-.652 3.94-1.672 1.021-1.02 1.672-2.409 1.672-3.94v-8.05zm200.807 181.957-37.531-12.728-24.463 11.991v11.31c0 8.504 3.486 16.272 9.128 21.884 5.612 5.612 13.351 9.099 21.884 9.099 8.504 0 16.271-3.487 21.883-9.099 5.612-5.613 9.1-13.38 9.1-21.884v-10.573zm-61.995-17.377 20.239-9.892c1.814-1.049 4.025-1.333 6.151-.595l35.604 12.047v-14.854c0-3.855-1.588-7.37-4.139-9.921-2.523-2.551-6.038-4.139-9.893-4.139h-33.902c-3.855 0-7.371 1.587-9.922 4.139-2.551 2.551-4.139 6.066-4.139 9.921v13.294zm-339.619-8.39h61.994v-18.964h-47.933c-3.855 0-7.37 1.587-9.922 4.139-2.551 2.551-4.139 6.066-4.139 9.921zm61.995 15.024h-61.995v21.316c0 8.504 3.487 16.272 9.128 21.884 5.612 5.612 13.351 9.099 21.884 9.099 8.504 0 16.271-3.487 21.883-9.099 5.613-5.613 9.1-13.38 9.1-21.884zm169.823 10.006c-10.317 1.418-26.787 1.105-40.563-10.885-4.848 2.778-12.359 5.811-21.43 5.159v17.036c0 8.504 3.486 16.272 9.099 21.884 5.642 5.612 13.38 9.099 21.884 9.099 8.532 0 16.271-3.487 21.884-9.099 5.641-5.613 9.127-13.38 9.127-21.884v-11.31zm-61.993-20.75c6.321.822 12.643-1.361 17.433-5.471 3.118-2.721 7.823-2.381 10.545.737 10.97 12.643 26.221 11.877 34.016 10.403v-14.854c0-3.855-1.587-7.37-4.138-9.921-2.552-2.551-6.066-4.139-9.922-4.139h-33.902c-3.855 0-7.342 1.587-9.893 4.139-2.552 2.551-4.139 6.066-4.139 9.921zm-92.835 32.06c0 9.468-2.892 18.312-7.852 25.654 10.374.992 19.7 5.669 26.702 12.643 7.936 7.937 12.841 18.907 12.841 30.955v90.199c0 4.139-3.345 7.484-7.483 7.484-46.8 0-93.6 0-140.372 0-4.138 0-7.512-3.345-7.512-7.484v-28.12c0-4.139 3.374-7.483 7.512-7.483 4.139 0 7.483 3.345 7.483 7.483v20.608h14.429v-68.684c0-4.167 3.373-7.512 7.512-7.512s7.512 3.345 7.512 7.512v68.684h66.501v-68.684c0-4.167 3.345-7.512 7.512-7.512 4.139 0 7.483 3.345 7.483 7.512v68.684h14.429v-82.688c0-7.909-3.231-15.109-8.447-20.353-5.244-5.216-12.444-8.447-20.352-8.447h-12.02c-6.52 3.515-13.975 5.527-21.854 5.527-7.909 0-15.336-2.013-21.855-5.527h-12.021c-7.938 0-15.138 3.231-20.353 8.447-5.217 5.244-8.476 12.444-8.476 20.353v28.12c0 4.139-3.345 7.483-7.483 7.483s-7.512-3.345-7.512-7.483v-28.12c0-12.048 4.933-23.018 12.87-30.955 7.001-6.974 16.327-11.65 26.702-12.643-4.961-7.342-7.881-16.186-7.881-25.654v-28.829-12.416c0-8.022 3.26-15.278 8.532-20.522 5.272-5.273 12.529-8.533 20.523-8.533h55.445c4.139 0 7.483 3.345 7.483 7.484v33.987 28.83zm339.619 0c0 9.468-2.892 18.312-7.853 25.654 10.375.992 19.701 5.669 26.703 12.643 7.937 7.937 12.841 18.907 12.841 30.955v90.199c0 4.139-3.345 7.484-7.483 7.484-46.801 0-93.601 0-140.372 0-4.139 0-7.512-3.345-7.512-7.484v-28.12c0-4.139 3.373-7.483 7.512-7.483s7.483 3.345 7.483 7.483v20.608h14.429v-68.684c0-4.167 3.373-7.512 7.512-7.512s7.512 3.345 7.512 7.512v68.684h66.501v-68.684c0-4.167 3.345-7.512 7.512-7.512 4.139 0 7.483 3.345 7.483 7.512v68.684h14.429v-82.688c0-7.909-3.232-15.109-8.447-20.353-5.244-5.216-12.444-8.447-20.354-8.447h-12.019c-6.52 3.515-13.975 5.527-21.855 5.527-7.909 0-15.336-2.013-21.855-5.527h-12.02c-7.936 0-15.137 3.231-20.352 8.447-5.216 5.244-8.476 12.444-8.476 20.353v28.12c0 4.139-3.345 7.483-7.483 7.483s-7.512-3.345-7.512-7.483v-28.12c0-12.048 4.933-23.018 12.869-30.955 7.002-6.974 16.327-11.65 26.702-12.643-4.96-7.342-7.88-16.186-7.88-25.654v-41.245c0-8.022 3.26-15.278 8.532-20.522 5.272-5.273 12.529-8.533 20.523-8.533h33.902c7.993 0 15.25 3.26 20.523 8.533 5.244 5.244 8.504 12.529 8.504 20.522v41.246zm-169.796 0c0 9.468-2.919 18.312-7.852 25.654 10.347.992 19.701 5.669 26.674 12.643 7.938 7.937 12.869 18.907 12.869 30.955v90.199c0 4.139-3.345 7.484-7.512 7.484-46.771 0-93.571 0-140.371 0-4.139 0-7.483-3.345-7.483-7.484v-28.12c0-4.139 3.345-7.483 7.483-7.483 4.139 0 7.512 3.345 7.512 7.483v20.608h14.428v-68.684c0-4.167 3.346-7.512 7.484-7.512 4.166 0 7.512 3.345 7.512 7.512v68.684h66.529v-68.684c0-4.167 3.344-7.512 7.482-7.512s7.512 3.345 7.512 7.512v68.684h14.429v-82.688c0-7.909-3.26-15.109-8.475-20.353-5.216-5.216-12.416-8.447-20.324-8.447h-12.047c-6.52 3.515-13.947 5.527-21.855 5.527-7.881 0-15.336-2.013-21.826-5.527h-12.048c-7.909 0-15.108 3.231-20.324 8.447-5.244 5.244-8.476 12.444-8.476 20.353v28.12c0 4.139-3.373 7.483-7.512 7.483s-7.483-3.345-7.483-7.483v-28.12c0-12.048 4.903-23.018 12.841-30.955 7.002-6.974 16.327-11.65 26.702-12.643-4.961-7.342-7.852-16.186-7.852-25.654v-41.245c0-8.022 3.261-15.278 8.504-20.522 5.273-5.273 12.529-8.533 20.523-8.533h33.902c7.994 0 15.279 3.26 20.523 8.533 5.271 5.244 8.531 12.5 8.531 20.522zm-161.348-146.609h88.526c2.976 0 5.527 1.729 6.746 4.224 6.689 11.594 13.38 23.188 20.069 34.782 6.775-11.764 13.578-23.499 20.353-35.235 1.333-2.324 3.799-3.77 6.463-3.77h88.753c2.211 0 4.195.964 5.584 2.495l36.936 35.575 4.167-35.745c.368-3.203 2.693-5.698 5.642-6.435 18.821-5.869 35.121-17.689 46.629-33.223 11.282-15.223 17.973-34.073 17.973-54.398 0-25.229-10.318-48.133-26.93-64.772-16.639-16.64-39.571-26.958-64.8-26.958h-281.538c-25.229 0-48.132 10.318-64.771 26.958-16.64 16.639-26.958 39.572-26.958 64.772 0 20.325 6.69 39.175 17.973 54.398 11.593 15.647 28.034 27.524 47.026 33.364 3.175.964 4.933 3.515 5.301 6.689l4.11 35.349 37.36-35.972c1.446-1.389 3.43-2.098 5.386-2.098zm84.217 14.996h-81.439l-45.751 44.079c-1.162 1.247-2.778 2.098-4.621 2.296-4.11.482-7.823-2.466-8.277-6.576l-5.357-46.035c-20.098-7.229-37.474-20.325-49.975-37.191-13.152-17.773-20.948-39.686-20.948-63.299 0-29.367 12.019-56.041 31.352-75.373 19.331-19.334 46.005-31.353 75.372-31.353h281.537c29.367 0 56.041 12.019 75.401 31.352 19.332 19.332 31.323 46.007 31.323 75.373 0 23.613-7.796 45.525-20.948 63.299-12.501 16.866-29.849 29.962-49.946 37.191l-5.357 45.922c-.198 1.644-.879 3.232-2.069 4.45-2.863 2.977-7.598 3.061-10.573.198l-46.035-44.334h-81.439c-8.221 14.23-16.413 28.46-24.634 42.69-.651 1.105-1.587 2.041-2.749 2.721-3.601 2.069-8.164.822-10.205-2.749-8.221-14.23-16.441-28.431-24.662-42.661zm2.127-68.997c-.199-8.532-4.65-15.307-9.298-22.365-6.52-9.893-13.323-20.211-13.323-36.822 0-14.258 5.783-27.157 15.137-36.482 9.326-9.354 22.252-15.137 36.482-15.137 14.258 0 27.156 5.783 36.51 15.137 9.326 9.326 15.109 22.224 15.109 36.482 0 16.611-6.804 26.929-13.295 36.822-4.648 7.058-9.1 13.833-9.297 22.365l.027 16.13c0 5.669-2.324 10.828-6.065 14.542-3.714 3.742-8.873 6.066-14.542 6.066h-16.866c-5.669 0-10.828-2.325-14.57-6.066-3.741-3.713-6.038-8.873-6.038-14.542zm14.286-6.945h29.452c1.645-9.297 6.293-16.328 11.111-23.641 5.244-7.995 10.771-16.385 10.771-28.602 0-10.12-4.109-19.276-10.715-25.881-6.633-6.633-15.789-10.744-25.908-10.744-10.092 0-19.247 4.11-25.881 10.744-6.633 6.605-10.715 15.761-10.715 25.881 0 12.217 5.5 20.607 10.771 28.602 4.793 7.314 9.441 14.344 11.114 23.641z" />
      </symbol>
    </svg>